<mxfile host="app.diagrams.net" modified="2020-10-20T11:45:27.335Z" agent="5.0 (Windows NT 10.0; Win64; x64) AppleWebKit/537.36 (KHTML, like Gecko) Chrome/86.0.4240.80 Safari/537.36 Edg/86.0.622.43" etag="uLu2eKJ5hAHuzmVQOdDZ" version="13.8.0" type="github">
  <diagram id="C5RBs43oDa-KdzZeNtuy" name="Page-1">
    <mxGraphModel dx="2310" dy="1952" grid="1" gridSize="10" guides="1" tooltips="1" connect="1" arrows="1" fold="1" page="1" pageScale="1" pageWidth="827" pageHeight="1169" math="0" shadow="0">
      <root>
        <mxCell id="WIyWlLk6GJQsqaUBKTNV-0" />
        <mxCell id="WIyWlLk6GJQsqaUBKTNV-1" parent="WIyWlLk6GJQsqaUBKTNV-0" />
        <mxCell id="DEtJelTTfhasqUvs7KJf-53" style="edgeStyle=orthogonalEdgeStyle;rounded=0;orthogonalLoop=1;jettySize=auto;html=1;entryX=1;entryY=0.5;entryDx=0;entryDy=0;endArrow=diamond;endFill=0;fontFamily=Lucida Console;" edge="1" parent="WIyWlLk6GJQsqaUBKTNV-1" source="zkfFHV4jXpPFQw0GAbJ--0" target="DEtJelTTfhasqUvs7KJf-34">
          <mxGeometry relative="1" as="geometry" />
        </mxCell>
        <mxCell id="zkfFHV4jXpPFQw0GAbJ--0" value="Entry" style="swimlane;fontStyle=1;align=center;verticalAlign=top;childLayout=stackLayout;horizontal=1;startSize=26;horizontalStack=0;resizeParent=1;resizeLast=0;collapsible=1;marginBottom=0;rounded=0;shadow=0;strokeWidth=1;fontFamily=Lucida Console;" parent="WIyWlLk6GJQsqaUBKTNV-1" vertex="1">
          <mxGeometry x="50" y="180" width="290" height="360" as="geometry">
            <mxRectangle x="230" y="140" width="160" height="26" as="alternateBounds" />
          </mxGeometry>
        </mxCell>
        <mxCell id="zkfFHV4jXpPFQw0GAbJ--1" value="-content:String" style="text;align=left;verticalAlign=top;spacingLeft=4;spacingRight=4;overflow=hidden;rotatable=0;points=[[0,0.5],[1,0.5]];portConstraint=eastwest;fontFamily=Lucida Console;" parent="zkfFHV4jXpPFQw0GAbJ--0" vertex="1">
          <mxGeometry y="26" width="290" height="26" as="geometry" />
        </mxCell>
        <mxCell id="zkfFHV4jXpPFQw0GAbJ--2" value="-createdAt:Timestamp" style="text;align=left;verticalAlign=top;spacingLeft=4;spacingRight=4;overflow=hidden;rotatable=0;points=[[0,0.5],[1,0.5]];portConstraint=eastwest;rounded=0;shadow=0;html=0;fontFamily=Lucida Console;" parent="zkfFHV4jXpPFQw0GAbJ--0" vertex="1">
          <mxGeometry y="52" width="290" height="26" as="geometry" />
        </mxCell>
        <mxCell id="zkfFHV4jXpPFQw0GAbJ--3" value="-updatedAt:Timestamp" style="text;align=left;verticalAlign=top;spacingLeft=4;spacingRight=4;overflow=hidden;rotatable=0;points=[[0,0.5],[1,0.5]];portConstraint=eastwest;rounded=0;shadow=0;html=0;fontFamily=Lucida Console;" parent="zkfFHV4jXpPFQw0GAbJ--0" vertex="1">
          <mxGeometry y="78" width="290" height="26" as="geometry" />
        </mxCell>
        <mxCell id="DEtJelTTfhasqUvs7KJf-13" value="-author:User" style="text;align=left;verticalAlign=top;spacingLeft=4;spacingRight=4;overflow=hidden;rotatable=0;points=[[0,0.5],[1,0.5]];portConstraint=eastwest;rounded=0;shadow=0;html=0;fontFamily=Lucida Console;" vertex="1" parent="zkfFHV4jXpPFQw0GAbJ--0">
          <mxGeometry y="104" width="290" height="26" as="geometry" />
        </mxCell>
        <mxCell id="DEtJelTTfhasqUvs7KJf-19" value="-edits:Edit[]" style="text;align=left;verticalAlign=top;spacingLeft=4;spacingRight=4;overflow=hidden;rotatable=0;points=[[0,0.5],[1,0.5]];portConstraint=eastwest;rounded=0;shadow=0;html=0;fontFamily=Lucida Console;" vertex="1" parent="zkfFHV4jXpPFQw0GAbJ--0">
          <mxGeometry y="130" width="290" height="26" as="geometry" />
        </mxCell>
        <mxCell id="zkfFHV4jXpPFQw0GAbJ--4" value="" style="line;html=1;strokeWidth=1;align=left;verticalAlign=middle;spacingTop=-1;spacingLeft=3;spacingRight=3;rotatable=0;labelPosition=right;points=[];portConstraint=eastwest;fontFamily=Lucida Console;" parent="zkfFHV4jXpPFQw0GAbJ--0" vertex="1">
          <mxGeometry y="156" width="290" height="8" as="geometry" />
        </mxCell>
        <mxCell id="zkfFHV4jXpPFQw0GAbJ--5" value="+Entry(content:String, author:User)" style="text;align=left;verticalAlign=top;spacingLeft=4;spacingRight=4;overflow=hidden;rotatable=0;points=[[0,0.5],[1,0.5]];portConstraint=eastwest;fontFamily=Lucida Console;" parent="zkfFHV4jXpPFQw0GAbJ--0" vertex="1">
          <mxGeometry y="164" width="290" height="28" as="geometry" />
        </mxCell>
        <mxCell id="DEtJelTTfhasqUvs7KJf-18" value="+edit(content:String, author:User):void" style="text;align=left;verticalAlign=top;spacingLeft=4;spacingRight=4;overflow=hidden;rotatable=0;points=[[0,0.5],[1,0.5]];portConstraint=eastwest;fontFamily=Lucida Console;" vertex="1" parent="zkfFHV4jXpPFQw0GAbJ--0">
          <mxGeometry y="192" width="290" height="28" as="geometry" />
        </mxCell>
        <mxCell id="DEtJelTTfhasqUvs7KJf-21" value="+getContent():String" style="text;align=left;verticalAlign=top;spacingLeft=4;spacingRight=4;overflow=hidden;rotatable=0;points=[[0,0.5],[1,0.5]];portConstraint=eastwest;fontFamily=Lucida Console;" vertex="1" parent="zkfFHV4jXpPFQw0GAbJ--0">
          <mxGeometry y="220" width="290" height="28" as="geometry" />
        </mxCell>
        <mxCell id="DEtJelTTfhasqUvs7KJf-22" value="+getCreationDate():Timestamp" style="text;align=left;verticalAlign=top;spacingLeft=4;spacingRight=4;overflow=hidden;rotatable=0;points=[[0,0.5],[1,0.5]];portConstraint=eastwest;fontFamily=Lucida Console;" vertex="1" parent="zkfFHV4jXpPFQw0GAbJ--0">
          <mxGeometry y="248" width="290" height="28" as="geometry" />
        </mxCell>
        <mxCell id="DEtJelTTfhasqUvs7KJf-23" value="+getEditDate():Timestamp" style="text;align=left;verticalAlign=top;spacingLeft=4;spacingRight=4;overflow=hidden;rotatable=0;points=[[0,0.5],[1,0.5]];portConstraint=eastwest;fontFamily=Lucida Console;" vertex="1" parent="zkfFHV4jXpPFQw0GAbJ--0">
          <mxGeometry y="276" width="290" height="28" as="geometry" />
        </mxCell>
        <mxCell id="DEtJelTTfhasqUvs7KJf-24" value="+getAuthor():User" style="text;align=left;verticalAlign=top;spacingLeft=4;spacingRight=4;overflow=hidden;rotatable=0;points=[[0,0.5],[1,0.5]];portConstraint=eastwest;fontFamily=Lucida Console;" vertex="1" parent="zkfFHV4jXpPFQw0GAbJ--0">
          <mxGeometry y="304" width="290" height="28" as="geometry" />
        </mxCell>
        <mxCell id="DEtJelTTfhasqUvs7KJf-25" value="+getEdits():Edit" style="text;align=left;verticalAlign=top;spacingLeft=4;spacingRight=4;overflow=hidden;rotatable=0;points=[[0,0.5],[1,0.5]];portConstraint=eastwest;fontFamily=Lucida Console;" vertex="1" parent="zkfFHV4jXpPFQw0GAbJ--0">
          <mxGeometry y="332" width="290" height="28" as="geometry" />
        </mxCell>
        <mxCell id="DEtJelTTfhasqUvs7KJf-17" style="edgeStyle=orthogonalEdgeStyle;rounded=0;orthogonalLoop=1;jettySize=auto;html=1;fontFamily=Lucida Console;endArrow=diamond;endFill=0;exitX=-0.003;exitY=0.063;exitDx=0;exitDy=0;exitPerimeter=0;entryX=1;entryY=0.5;entryDx=0;entryDy=0;" edge="1" parent="WIyWlLk6GJQsqaUBKTNV-1" source="DEtJelTTfhasqUvs7KJf-6" target="DEtJelTTfhasqUvs7KJf-13">
          <mxGeometry relative="1" as="geometry">
            <mxPoint x="420" y="230" as="targetPoint" />
            <Array as="points">
              <mxPoint x="380" y="-76" />
              <mxPoint x="380" y="297" />
            </Array>
          </mxGeometry>
        </mxCell>
        <mxCell id="DEtJelTTfhasqUvs7KJf-20" style="edgeStyle=orthogonalEdgeStyle;rounded=0;orthogonalLoop=1;jettySize=auto;html=1;fontFamily=Lucida Console;endArrow=diamond;endFill=0;entryX=1;entryY=0.5;entryDx=0;entryDy=0;exitX=0;exitY=0.052;exitDx=0;exitDy=0;exitPerimeter=0;" edge="1" parent="WIyWlLk6GJQsqaUBKTNV-1" source="DEtJelTTfhasqUvs7KJf-0" target="DEtJelTTfhasqUvs7KJf-19">
          <mxGeometry relative="1" as="geometry">
            <mxPoint x="500" y="90" as="sourcePoint" />
            <mxPoint x="350" y="307" as="targetPoint" />
            <Array as="points">
              <mxPoint x="435" y="330" />
              <mxPoint x="435" y="323" />
            </Array>
          </mxGeometry>
        </mxCell>
        <mxCell id="DEtJelTTfhasqUvs7KJf-0" value="Edit" style="swimlane;fontStyle=1;align=center;verticalAlign=top;childLayout=stackLayout;horizontal=1;startSize=26;horizontalStack=0;resizeParent=1;resizeLast=0;collapsible=1;marginBottom=0;rounded=0;shadow=0;strokeWidth=1;fontFamily=Lucida Console;" vertex="1" parent="WIyWlLk6GJQsqaUBKTNV-1">
          <mxGeometry x="530" y="320" width="250" height="224" as="geometry">
            <mxRectangle x="230" y="140" width="160" height="26" as="alternateBounds" />
          </mxGeometry>
        </mxCell>
        <mxCell id="DEtJelTTfhasqUvs7KJf-1" value="-content:String" style="text;align=left;verticalAlign=top;spacingLeft=4;spacingRight=4;overflow=hidden;rotatable=0;points=[[0,0.5],[1,0.5]];portConstraint=eastwest;fontFamily=Lucida Console;" vertex="1" parent="DEtJelTTfhasqUvs7KJf-0">
          <mxGeometry y="26" width="250" height="26" as="geometry" />
        </mxCell>
        <mxCell id="DEtJelTTfhasqUvs7KJf-2" value="-createdAt:Timestamp" style="text;align=left;verticalAlign=top;spacingLeft=4;spacingRight=4;overflow=hidden;rotatable=0;points=[[0,0.5],[1,0.5]];portConstraint=eastwest;rounded=0;shadow=0;html=0;fontFamily=Lucida Console;" vertex="1" parent="DEtJelTTfhasqUvs7KJf-0">
          <mxGeometry y="52" width="250" height="26" as="geometry" />
        </mxCell>
        <mxCell id="DEtJelTTfhasqUvs7KJf-3" value="-author:User" style="text;align=left;verticalAlign=top;spacingLeft=4;spacingRight=4;overflow=hidden;rotatable=0;points=[[0,0.5],[1,0.5]];portConstraint=eastwest;rounded=0;shadow=0;html=0;fontFamily=Lucida Console;" vertex="1" parent="DEtJelTTfhasqUvs7KJf-0">
          <mxGeometry y="78" width="250" height="26" as="geometry" />
        </mxCell>
        <mxCell id="DEtJelTTfhasqUvs7KJf-4" value="" style="line;html=1;strokeWidth=1;align=left;verticalAlign=middle;spacingTop=-1;spacingLeft=3;spacingRight=3;rotatable=0;labelPosition=right;points=[];portConstraint=eastwest;fontFamily=Lucida Console;" vertex="1" parent="DEtJelTTfhasqUvs7KJf-0">
          <mxGeometry y="104" width="250" height="8" as="geometry" />
        </mxCell>
        <mxCell id="DEtJelTTfhasqUvs7KJf-5" value="+Edit(content:String, author:User)" style="text;align=left;verticalAlign=top;spacingLeft=4;spacingRight=4;overflow=hidden;rotatable=0;points=[[0,0.5],[1,0.5]];portConstraint=eastwest;fontFamily=Lucida Console;" vertex="1" parent="DEtJelTTfhasqUvs7KJf-0">
          <mxGeometry y="112" width="250" height="28" as="geometry" />
        </mxCell>
        <mxCell id="DEtJelTTfhasqUvs7KJf-26" value="+getContent():String" style="text;align=left;verticalAlign=top;spacingLeft=4;spacingRight=4;overflow=hidden;rotatable=0;points=[[0,0.5],[1,0.5]];portConstraint=eastwest;fontFamily=Lucida Console;" vertex="1" parent="DEtJelTTfhasqUvs7KJf-0">
          <mxGeometry y="140" width="250" height="28" as="geometry" />
        </mxCell>
        <mxCell id="DEtJelTTfhasqUvs7KJf-27" value="+getAuthor():User" style="text;align=left;verticalAlign=top;spacingLeft=4;spacingRight=4;overflow=hidden;rotatable=0;points=[[0,0.5],[1,0.5]];portConstraint=eastwest;fontFamily=Lucida Console;" vertex="1" parent="DEtJelTTfhasqUvs7KJf-0">
          <mxGeometry y="168" width="250" height="28" as="geometry" />
        </mxCell>
        <mxCell id="DEtJelTTfhasqUvs7KJf-28" value="+getCreationDate():Timestamp" style="text;align=left;verticalAlign=top;spacingLeft=4;spacingRight=4;overflow=hidden;rotatable=0;points=[[0,0.5],[1,0.5]];portConstraint=eastwest;fontFamily=Lucida Console;" vertex="1" parent="DEtJelTTfhasqUvs7KJf-0">
          <mxGeometry y="196" width="250" height="28" as="geometry" />
        </mxCell>
        <mxCell id="DEtJelTTfhasqUvs7KJf-6" value="User" style="swimlane;fontStyle=1;align=center;verticalAlign=top;childLayout=stackLayout;horizontal=1;startSize=26;horizontalStack=0;resizeParent=1;resizeLast=0;collapsible=1;marginBottom=0;rounded=0;shadow=0;strokeWidth=1;fontFamily=Lucida Console;" vertex="1" parent="WIyWlLk6GJQsqaUBKTNV-1">
          <mxGeometry x="480" y="-90" width="420" height="222" as="geometry">
            <mxRectangle x="230" y="140" width="160" height="26" as="alternateBounds" />
          </mxGeometry>
        </mxCell>
        <mxCell id="DEtJelTTfhasqUvs7KJf-7" value="-name:String" style="text;align=left;verticalAlign=top;spacingLeft=4;spacingRight=4;overflow=hidden;rotatable=0;points=[[0,0.5],[1,0.5]];portConstraint=eastwest;fontFamily=Lucida Console;" vertex="1" parent="DEtJelTTfhasqUvs7KJf-6">
          <mxGeometry y="26" width="420" height="26" as="geometry" />
        </mxCell>
        <mxCell id="DEtJelTTfhasqUvs7KJf-8" value="-id:int" style="text;align=left;verticalAlign=top;spacingLeft=4;spacingRight=4;overflow=hidden;rotatable=0;points=[[0,0.5],[1,0.5]];portConstraint=eastwest;rounded=0;shadow=0;html=0;fontFamily=Lucida Console;" vertex="1" parent="DEtJelTTfhasqUvs7KJf-6">
          <mxGeometry y="52" width="420" height="26" as="geometry" />
        </mxCell>
        <mxCell id="DEtJelTTfhasqUvs7KJf-9" value="-email:String" style="text;align=left;verticalAlign=top;spacingLeft=4;spacingRight=4;overflow=hidden;rotatable=0;points=[[0,0.5],[1,0.5]];portConstraint=eastwest;rounded=0;shadow=0;html=0;fontFamily=Lucida Console;" vertex="1" parent="DEtJelTTfhasqUvs7KJf-6">
          <mxGeometry y="78" width="420" height="26" as="geometry" />
        </mxCell>
        <mxCell id="DEtJelTTfhasqUvs7KJf-12" value="-password:String" style="text;align=left;verticalAlign=top;spacingLeft=4;spacingRight=4;overflow=hidden;rotatable=0;points=[[0,0.5],[1,0.5]];portConstraint=eastwest;rounded=0;shadow=0;html=0;fontFamily=Lucida Console;" vertex="1" parent="DEtJelTTfhasqUvs7KJf-6">
          <mxGeometry y="104" width="420" height="26" as="geometry" />
        </mxCell>
        <mxCell id="DEtJelTTfhasqUvs7KJf-10" value="" style="line;html=1;strokeWidth=1;align=left;verticalAlign=middle;spacingTop=-1;spacingLeft=3;spacingRight=3;rotatable=0;labelPosition=right;points=[];portConstraint=eastwest;fontFamily=Lucida Console;" vertex="1" parent="DEtJelTTfhasqUvs7KJf-6">
          <mxGeometry y="130" width="420" height="8" as="geometry" />
        </mxCell>
        <mxCell id="DEtJelTTfhasqUvs7KJf-11" value="+User(name:String, id:int, email:String, password:String)" style="text;align=left;verticalAlign=top;spacingLeft=4;spacingRight=4;overflow=hidden;rotatable=0;points=[[0,0.5],[1,0.5]];portConstraint=eastwest;fontFamily=Lucida Console;" vertex="1" parent="DEtJelTTfhasqUvs7KJf-6">
          <mxGeometry y="138" width="420" height="28" as="geometry" />
        </mxCell>
        <mxCell id="DEtJelTTfhasqUvs7KJf-29" value="+getId():int" style="text;align=left;verticalAlign=top;spacingLeft=4;spacingRight=4;overflow=hidden;rotatable=0;points=[[0,0.5],[1,0.5]];portConstraint=eastwest;fontFamily=Lucida Console;" vertex="1" parent="DEtJelTTfhasqUvs7KJf-6">
          <mxGeometry y="166" width="420" height="28" as="geometry" />
        </mxCell>
        <mxCell id="DEtJelTTfhasqUvs7KJf-30" value="+getEamil():String" style="text;align=left;verticalAlign=top;spacingLeft=4;spacingRight=4;overflow=hidden;rotatable=0;points=[[0,0.5],[1,0.5]];portConstraint=eastwest;fontFamily=Lucida Console;" vertex="1" parent="DEtJelTTfhasqUvs7KJf-6">
          <mxGeometry y="194" width="420" height="28" as="geometry" />
        </mxCell>
        <mxCell id="DEtJelTTfhasqUvs7KJf-32" value="EntryManager" style="swimlane;fontStyle=1;align=center;verticalAlign=top;childLayout=stackLayout;horizontal=1;startSize=26;horizontalStack=0;resizeParent=1;resizeLast=0;collapsible=1;marginBottom=0;rounded=0;shadow=0;strokeWidth=1;fontFamily=Lucida Console;" vertex="1" parent="WIyWlLk6GJQsqaUBKTNV-1">
          <mxGeometry x="-330" y="-40" width="290" height="230" as="geometry">
            <mxRectangle x="230" y="140" width="160" height="26" as="alternateBounds" />
          </mxGeometry>
        </mxCell>
        <mxCell id="DEtJelTTfhasqUvs7KJf-34" value="-entries:Entry[]" style="text;align=left;verticalAlign=top;spacingLeft=4;spacingRight=4;overflow=hidden;rotatable=0;points=[[0,0.5],[1,0.5]];portConstraint=eastwest;rounded=0;shadow=0;html=0;fontFamily=Lucida Console;" vertex="1" parent="DEtJelTTfhasqUvs7KJf-32">
          <mxGeometry y="26" width="290" height="26" as="geometry" />
        </mxCell>
        <mxCell id="DEtJelTTfhasqUvs7KJf-46" value="-users:User[]" style="text;align=left;verticalAlign=top;spacingLeft=4;spacingRight=4;overflow=hidden;rotatable=0;points=[[0,0.5],[1,0.5]];portConstraint=eastwest;rounded=0;shadow=0;html=0;fontFamily=Lucida Console;" vertex="1" parent="DEtJelTTfhasqUvs7KJf-32">
          <mxGeometry y="52" width="290" height="26" as="geometry" />
        </mxCell>
        <mxCell id="DEtJelTTfhasqUvs7KJf-38" value="" style="line;html=1;strokeWidth=1;align=left;verticalAlign=middle;spacingTop=-1;spacingLeft=3;spacingRight=3;rotatable=0;labelPosition=right;points=[];portConstraint=eastwest;fontFamily=Lucida Console;" vertex="1" parent="DEtJelTTfhasqUvs7KJf-32">
          <mxGeometry y="78" width="290" height="8" as="geometry" />
        </mxCell>
        <mxCell id="DEtJelTTfhasqUvs7KJf-39" value="+Entry()" style="text;align=left;verticalAlign=top;spacingLeft=4;spacingRight=4;overflow=hidden;rotatable=0;points=[[0,0.5],[1,0.5]];portConstraint=eastwest;fontFamily=Lucida Console;" vertex="1" parent="DEtJelTTfhasqUvs7KJf-32">
          <mxGeometry y="86" width="290" height="28" as="geometry" />
        </mxCell>
        <mxCell id="DEtJelTTfhasqUvs7KJf-47" value="+getEntries():Entry[]" style="text;align=left;verticalAlign=top;spacingLeft=4;spacingRight=4;overflow=hidden;rotatable=0;points=[[0,0.5],[1,0.5]];portConstraint=eastwest;fontFamily=Lucida Console;" vertex="1" parent="DEtJelTTfhasqUvs7KJf-32">
          <mxGeometry y="114" width="290" height="28" as="geometry" />
        </mxCell>
        <mxCell id="DEtJelTTfhasqUvs7KJf-48" value="+getUsers():User[]" style="text;align=left;verticalAlign=top;spacingLeft=4;spacingRight=4;overflow=hidden;rotatable=0;points=[[0,0.5],[1,0.5]];portConstraint=eastwest;fontFamily=Lucida Console;" vertex="1" parent="DEtJelTTfhasqUvs7KJf-32">
          <mxGeometry y="142" width="290" height="28" as="geometry" />
        </mxCell>
        <mxCell id="DEtJelTTfhasqUvs7KJf-49" value="+createUser():User" style="text;align=left;verticalAlign=top;spacingLeft=4;spacingRight=4;overflow=hidden;rotatable=0;points=[[0,0.5],[1,0.5]];portConstraint=eastwest;fontFamily=Lucida Console;" vertex="1" parent="DEtJelTTfhasqUvs7KJf-32">
          <mxGeometry y="170" width="290" height="28" as="geometry" />
        </mxCell>
        <mxCell id="DEtJelTTfhasqUvs7KJf-50" value="+createEntry():Entry" style="text;align=left;verticalAlign=top;spacingLeft=4;spacingRight=4;overflow=hidden;rotatable=0;points=[[0,0.5],[1,0.5]];portConstraint=eastwest;fontFamily=Lucida Console;" vertex="1" parent="DEtJelTTfhasqUvs7KJf-32">
          <mxGeometry y="198" width="290" height="28" as="geometry" />
        </mxCell>
        <mxCell id="DEtJelTTfhasqUvs7KJf-52" style="edgeStyle=orthogonalEdgeStyle;rounded=0;orthogonalLoop=1;jettySize=auto;html=1;endArrow=diamond;endFill=0;fontFamily=Lucida Console;entryX=1;entryY=0.5;entryDx=0;entryDy=0;" edge="1" parent="WIyWlLk6GJQsqaUBKTNV-1" target="DEtJelTTfhasqUvs7KJf-46">
          <mxGeometry relative="1" as="geometry">
            <mxPoint x="120" y="-160" as="targetPoint" />
            <mxPoint x="480" y="-70" as="sourcePoint" />
          </mxGeometry>
        </mxCell>
      </root>
    </mxGraphModel>
  </diagram>
</mxfile>
